<svg xmlns="http://www.w3.org/2000/svg" viewBox="0 0 100 100" height="100px" width="100px" fill="black">
  <circle cx="50" cy="50" r="50" fill="white"/>
  <path d="M30,36.4c-4.4,6.5,4.4,21,17.6,15.6c13.2-5.5,13.4,5.9,9.8,10.4c-6.4,8.1-4.5,17.3-4.5,17.3s2.5-9.1,12.5-18c13.7-12.3,0.8-31-15.1-23.4c-12.4,5.9-13.3,2-13.4-1.1s5-10.4,5-10.4S34.3,29.9,30,36.4z"/>
  <path d="M39.3,14.8c4.7,4.3,9.8,0.8,11.8,2.9C56,22.4,44.5,34,44.5,34s17.3-5.6,15.2-17.2c-1.3-7.1-7.6-8.1-14.1-6.4c-8.7,2.3-8-5.4-8-5.4S34.4,10.2,39.3,14.8z"/>
  <path d="M48.1,79.9c-7.3-8.6,1.4-20.6,1.4-20.6s-13,3.5-13.7,11.6c-0.7,8.1,3.5,8.8,6.6,13.2c3.1,4.5,1,10.8,1,10.8S53.9,86.8,48.1,79.9z"/>
</svg>
